<?xml version="1.0" standalone="no"?>
<!DOCTYPE svg PUBLIC "-//W3C//DTD SVG 20010904//EN"
 "http://www.w3.org/TR/2001/REC-SVG-20010904/DTD/svg10.dtd">
<svg version="1.0" xmlns="http://www.w3.org/2000/svg"
 width="800.000000pt" height="761.000000pt" viewBox="0 0 800.000000 761.000000"
 preserveAspectRatio="xMidYMid meet">

<g transform="translate(0.000000,761.000000) scale(0.100000,-0.100000)"
fill="#000000" stroke="none">
<path d="M0 3805 l0 -3805 4000 0 4000 0 0 3805 0 3805 -4000 0 -4000 0 0
-3805z m3510 2323 c1 -7 1 -74 0 -150 0 -75 3 -139 8 -142 5 -3 12 -23 16 -44
11 -70 43 -156 85 -227 23 -38 45 -77 50 -85 4 -8 13 -24 19 -35 7 -11 18 -34
26 -51 7 -17 25 -48 39 -70 13 -22 32 -72 42 -111 15 -62 16 -86 7 -180 -6
-59 -18 -130 -26 -158 -18 -57 -86 -143 -104 -131 -15 9 -16 52 -2 61 13 8 13
259 1 283 -6 9 -18 42 -27 72 -19 60 -110 246 -125 256 -12 7 -72 134 -93 197
-41 123 -44 258 -8 389 24 85 90 176 92 126z m2388 -172 c9 -21 6 -33 -24 -83
-20 -32 -42 -62 -50 -66 -8 -4 -14 -14 -14 -20 0 -7 -22 -40 -48 -73 -26 -32
-51 -66 -55 -74 -12 -25 -40 -65 -89 -128 -27 -33 -48 -64 -48 -67 0 -7 -38
-57 -65 -86 -8 -9 -15 -20 -15 -26 0 -5 -11 -20 -25 -33 -14 -13 -25 -28 -25
-32 0 -11 -48 -79 -69 -95 -8 -7 -16 -36 -19 -66 -4 -52 -3 -55 37 -97 23 -24
41 -45 41 -48 0 -2 11 -17 24 -33 14 -16 30 -54 36 -86 6 -32 15 -64 19 -72 4
-7 1 -54 -7 -104 -9 -68 -22 -108 -50 -161 -20 -39 -42 -77 -49 -84 -16 -16
-53 -95 -54 -114 0 -7 -9 14 -20 47 -18 55 -32 74 -53 75 -4 0 -5 -8 -2 -17 4
-10 4 -14 0 -10 -4 4 -13 -1 -20 -11 -9 -12 -16 -14 -21 -6 -10 14 -40 24
-122 39 -56 11 -62 11 -46 -1 18 -14 18 -14 -1 -29 -10 -8 -23 -15 -28 -15 -4
0 -6 -7 -2 -15 3 -9 0 -15 -9 -15 -26 0 -16 -27 15 -40 17 -7 30 -16 30 -20 0
-5 3 -17 6 -27 6 -15 4 -16 -7 -5 -19 17 -34 15 -19 -3 7 -8 11 -15 9 -16 -35
-7 -46 -4 -67 17 -14 13 -31 24 -39 24 -9 0 -13 6 -10 14 4 10 0 12 -14 9 -10
-3 -19 0 -19 6 0 6 -9 11 -20 11 -11 0 -42 11 -69 24 -50 24 -88 36 -127 41
-17 2 -20 -1 -17 -16 4 -14 0 -19 -15 -19 -21 0 -49 -26 -39 -36 3 -4 19 -2
34 3 33 11 166 -11 198 -33 16 -11 16 -14 3 -14 -16 0 -32 -26 -23 -39 6 -11
-23 -11 -77 -1 -36 7 -53 6 -75 -5 -21 -11 -29 -12 -32 -3 -2 7 1 14 8 16 24
8 9 22 -24 22 -22 0 -38 -6 -44 -17 -5 -10 -22 -26 -39 -35 -32 -19 -52 -10
-52 24 0 10 -7 18 -15 18 -18 0 -20 -30 -2 -30 7 0 4 -7 -7 -15 -15 -11 -23
-12 -33 -3 -19 15 -27 4 -19 -27 5 -21 10 -24 20 -16 7 6 16 8 19 4 4 -3 26
-8 50 -9 71 -4 106 -15 100 -30 -3 -9 2 -14 15 -14 11 0 22 -3 24 -7 2 -5 17
-20 35 -34 21 -18 28 -30 23 -40 -5 -7 -12 -10 -16 -6 -4 4 -12 3 -19 -3 -6
-5 -22 -6 -34 -3 -21 5 -22 7 -8 18 14 10 9 12 -27 13 -42 0 -44 -1 -41 -26 2
-15 4 -30 4 -34 1 -5 12 -8 26 -8 14 0 34 -6 45 -12 15 -10 22 -10 32 0 10 10
20 4 50 -25 21 -20 38 -41 38 -45 0 -5 14 -27 30 -50 17 -22 30 -48 30 -57 0
-11 -4 -9 -16 7 -11 16 -21 21 -39 16 -21 -5 -24 -2 -27 28 -3 30 -7 34 -49
43 -25 5 -53 16 -62 23 -20 17 -40 6 -33 -17 3 -9 -4 -4 -17 12 -20 24 -30 27
-81 27 -47 0 -56 -3 -48 -13 6 -7 9 -23 5 -35 -5 -19 -1 -22 25 -22 17 0 43
-5 59 -12 15 -6 36 -10 46 -9 10 1 26 -4 35 -12 10 -8 27 -18 40 -21 12 -4 22
-11 22 -16 0 -5 7 -7 15 -4 9 4 23 -4 35 -17 24 -29 25 -39 5 -39 -9 0 -18 -7
-22 -16 -3 -8 -12 -13 -19 -10 -8 3 -14 1 -14 -5 0 -5 6 -12 14 -15 15 -6 10
-44 -5 -44 -5 0 -24 20 -41 45 -33 47 -42 53 -54 33 -4 -6 -3 -8 4 -4 6 3 13
2 17 -4 3 -5 0 -10 -7 -10 -7 0 -4 -6 7 -12 23 -12 45 -37 45 -51 0 -14 -63 1
-72 18 -5 8 -15 12 -24 8 -8 -3 -23 2 -33 11 -9 9 -33 19 -52 22 -19 4 -39 11
-46 16 -7 6 -13 4 -16 -4 -4 -10 -10 -8 -21 6 -8 10 -20 15 -26 11 -6 -4 -17
-1 -25 5 -18 15 -76 15 -104 1 -11 -7 -21 -9 -21 -5 0 3 -7 1 -15 -6 -9 -7
-13 -20 -10 -28 3 -9 0 -12 -9 -9 -7 3 -20 0 -27 -6 -10 -10 -11 -9 -2 3 6 8
11 27 10 41 -2 25 -3 25 -25 11 -15 -10 -21 -21 -17 -33 4 -11 2 -19 -5 -19
-6 0 -8 5 -5 10 9 15 -21 23 -43 11 -16 -9 -22 -5 -38 24 -24 44 -82 66 -105
39 -6 -8 -16 -14 -22 -14 -14 0 -97 -81 -97 -95 0 -5 -9 -16 -20 -23 -11 -7
-20 -18 -20 -25 0 -8 -20 -33 -45 -56 -25 -23 -45 -48 -45 -56 0 -25 -51 -55
-94 -55 -49 0 -86 -9 -86 -21 0 -4 -13 -27 -29 -51 -27 -41 -44 -115 -43 -180
1 -30 -29 -58 -63 -58 -12 0 -26 -5 -33 -12 -7 -7 -12 -8 -12 -2 0 11 49 86
62 95 5 3 18 23 29 45 16 30 23 66 28 154 6 101 8 109 15 69 5 -29 13 -46 22
-46 8 0 14 4 14 9 0 4 6 8 13 8 36 1 96 110 59 110 -9 0 -13 -7 -9 -19 8 -33
-7 -45 -38 -28 -18 9 -24 17 -16 21 6 4 11 15 11 25 0 10 10 23 23 29 21 10
21 11 2 11 -12 1 -27 -5 -34 -11 -8 -7 -6 -1 4 15 9 15 22 27 29 27 8 0 11 35
9 118 -2 116 5 117 24 2 3 -19 10 -41 15 -47 7 -9 7 -13 -1 -13 -6 0 -11 -11
-11 -25 0 -14 4 -25 9 -25 5 0 7 9 4 20 -3 11 0 20 6 20 6 0 11 -8 11 -17 0
-14 2 -15 9 -5 7 11 9 11 14 -1 4 -11 -3 -19 -22 -25 -17 -6 -31 -20 -34 -33
-5 -22 -5 -22 7 -6 19 25 33 21 45 -13 5 -16 12 -30 15 -30 16 0 86 33 86 41
0 5 15 26 33 46 43 48 80 103 75 108 -2 3 -20 -9 -40 -25 -30 -25 -41 -29 -61
-21 -19 7 -29 6 -37 -5 -7 -7 -17 -14 -22 -14 -13 0 -27 44 -17 55 5 5 9 16 9
25 0 51 80 155 110 144 8 -3 20 -7 25 -8 6 -1 16 -5 23 -9 6 -5 18 -5 25 -1 6
4 9 4 5 -1 -4 -4 -2 -13 5 -20 7 -7 27 -29 45 -49 27 -30 36 -35 48 -25 7 6
11 16 7 22 -3 6 -1 7 6 3 6 -4 18 -2 26 4 8 6 19 9 26 5 8 -5 9 -1 4 14 -4 15
-2 21 8 21 8 0 33 14 55 30 23 17 44 30 48 30 3 0 20 11 37 24 18 14 44 28 59
31 32 8 98 65 98 85 0 19 19 77 41 127 17 39 17 44 2 82 -9 23 -20 41 -26 41
-5 0 -7 7 -3 15 3 8 1 15 -5 15 -6 0 -8 9 -4 21 5 14 3 19 -3 15 -6 -3 -14 -2
-17 4 -4 6 -16 8 -28 5 -12 -4 -17 -3 -12 2 18 15 16 42 -5 55 -24 15 -26 28
-4 28 28 0 8 25 -22 27 -16 1 -35 10 -43 20 -13 17 -13 16 -8 -4 3 -13 1 -26
-4 -29 -5 -3 -9 -12 -9 -21 0 -13 3 -13 15 -3 9 8 15 9 15 2 0 -6 -4 -14 -10
-17 -5 -3 -10 -15 -10 -25 0 -10 -6 -21 -12 -23 -7 -3 -1 -6 15 -6 42 -1 32
-18 -13 -23 -29 -2 -40 0 -40 10 0 7 -4 10 -10 7 -5 -3 -20 1 -32 9 -12 9 -19
16 -14 16 12 0 -32 42 -68 64 l-28 18 23 12 c13 7 26 9 29 5 9 -13 35 -13 59
0 20 11 25 11 32 0 9 -15 11 -12 12 24 1 17 -3 21 -21 19 -12 -2 -22 2 -22 9
0 12 39 9 73 -6 25 -11 23 31 -3 47 -28 18 -25 31 3 16 19 -11 39 -26 104 -78
7 -6 16 -10 20 -9 20 3 27 -2 13 -11 -12 -8 -12 -11 3 -28 9 -10 17 -26 17
-35 0 -9 3 -17 8 -17 4 0 13 -14 21 -32 13 -28 15 -30 21 -12 4 10 4 24 -1 30
-5 6 -7 25 -4 43 2 21 0 31 -8 29 -15 -4 -17 4 -10 32 4 16 8 18 19 9 11 -9
14 -8 14 1 0 7 13 -2 29 -18 18 -20 35 -29 47 -26 16 4 19 0 17 -28 -1 -18 -2
-34 -2 -35 -1 -2 -1 -5 -1 -8 1 -3 -6 -13 -15 -21 -8 -9 -15 -22 -15 -29 0 -7
-12 -23 -27 -34 -14 -12 -23 -24 -20 -27 3 -4 13 1 23 10 9 9 24 14 34 11 23
-7 68 30 111 94 19 28 40 51 46 51 7 0 20 11 29 25 9 14 21 25 26 25 5 0 16 7
24 15 9 8 27 15 42 15 15 0 51 11 80 25 56 26 92 32 92 15 0 -5 -4 -10 -10
-10 -5 0 -10 -7 -10 -15 0 -14 3 -14 24 0 16 11 25 12 28 5 2 -6 37 -15 78
-19 81 -8 120 -27 195 -94 38 -35 55 -44 55 -31 0 12 -24 49 -36 57 -32 19 -5
29 36 14 8 -3 32 -8 53 -12 l39 -6 -3 65 c-2 35 -1 67 3 71 3 4 -2 15 -13 26
-10 10 -19 29 -19 42 0 12 -8 33 -17 46 l-16 24 -9 -23 c-7 -19 -10 -21 -25
-9 -9 8 -18 13 -19 12 -8 -3 -44 10 -44 17 0 12 -48 59 -54 53 -11 -12 -6 -21
15 -26 13 -3 18 -10 14 -17 -4 -7 -18 -9 -32 -5 -14 3 -31 1 -38 -5 -14 -12
-48 -3 -39 11 3 5 -1 6 -9 3 -7 -2 -32 -1 -55 4 -30 7 -46 6 -59 -3 -15 -11
-15 -13 6 -20 16 -5 21 -13 18 -25 -3 -13 0 -17 9 -13 8 3 14 0 14 -6 0 -7 14
-17 30 -23 24 -8 29 -15 25 -29 -4 -11 -2 -19 4 -19 6 0 11 -3 11 -7 0 -5 -66
-9 -147 -11 -139 -2 -148 -3 -179 -27 -18 -14 -35 -25 -38 -25 -3 0 -3 36 1
80 3 44 3 80 -1 80 -3 0 -21 -14 -38 -31 -24 -22 -40 -29 -63 -27 -21 2 -29
-2 -27 -11 6 -28 -20 -41 -82 -40 -33 1 -53 3 -43 6 9 2 15 9 11 14 -3 5 -10
7 -15 3 -5 -3 -20 1 -33 9 -16 11 -27 12 -33 6 -7 -7 -10 -2 -10 15 0 14 3 26
8 26 5 0 9 4 9 9 0 15 -44 9 -56 -8 -9 -11 -12 -8 -18 19 -3 18 -9 31 -12 27
-3 -3 -14 2 -24 10 -14 12 -16 22 -10 39 7 17 5 23 -10 27 -11 3 -27 -1 -37
-9 -17 -12 -16 -13 5 -7 17 4 23 2 21 -8 -2 -8 2 -24 9 -35 9 -17 9 -22 -1
-21 -30 1 -47 -4 -47 -13 0 -5 15 -10 33 -10 29 0 33 -3 32 -27 0 -33 -17 -47
-46 -38 -13 5 -25 2 -31 -6 -6 -10 -7 -7 -3 9 5 16 2 22 -10 22 -11 0 -15 5
-11 15 7 20 4 19 -24 -5 -23 -20 -60 -27 -60 -12 0 4 7 20 15 35 14 27 11 57
-6 57 -5 0 -9 -6 -9 -14 0 -8 -5 -18 -11 -22 -8 -4 -9 1 -5 17 7 23 6 23 -8 5
-12 -14 -12 -22 -3 -37 10 -16 9 -21 -3 -29 -13 -8 -12 -10 3 -10 9 0 17 -2
17 -4 0 -2 3 -11 6 -19 7 -18 -27 -32 -37 -16 -5 9 -12 7 -26 -6 -16 -17 -16
-18 -1 -12 12 4 21 0 28 -14 10 -18 9 -19 -16 -13 -23 6 -26 4 -21 -10 4 -9 2
-16 -2 -16 -5 0 -11 5 -13 11 -5 14 -78 40 -91 32 -5 -3 -13 1 -18 8 -6 9 -9
10 -9 2 0 -6 5 -15 10 -18 18 -11 10 -25 -22 -40 -22 -10 -26 -14 -13 -14 57
3 68 0 55 -16 -18 -22 0 -37 44 -37 20 0 36 -4 36 -9 0 -4 -7 -6 -15 -3 -8 4
-15 2 -15 -4 0 -5 16 -13 36 -16 37 -7 74 -33 74 -51 0 -17 24 -65 33 -65 4 0
7 -7 7 -15 0 -8 -7 -15 -15 -15 -8 0 -15 5 -15 11 0 5 6 7 13 3 6 -4 -3 7 -20
24 -18 17 -33 36 -33 42 0 7 -7 5 -16 -4 -20 -20 -34 -20 -34 -1 0 8 -6 15
-14 15 -8 0 -22 10 -30 21 -15 22 -15 22 -21 -7 -3 -16 -10 -37 -15 -46 -6
-11 -6 -19 0 -23 16 -10 11 -35 -6 -35 -14 0 -15 -2 -3 -17 12 -14 12 -16 -1
-11 -10 3 -15 18 -15 41 0 57 -16 61 -49 12 -26 -37 -77 -79 -98 -80 -17 0
-18 -16 -3 -45 l16 -32 35 39 c19 21 34 31 33 23 -3 -36 1 -49 16 -44 9 4 15
0 15 -10 0 -9 -6 -16 -12 -16 -10 0 -10 -2 0 -8 7 -5 11 -24 10 -45 -3 -39
-12 -48 -22 -22 -3 8 0 15 6 15 9 0 9 3 0 12 -7 7 -12 20 -12 29 0 27 -17 32
-47 14 -17 -10 -20 -14 -8 -11 17 5 20 1 21 -24 1 -17 -3 -30 -9 -30 -5 0 -4
-7 3 -15 10 -12 10 -24 0 -59 -7 -25 -9 -50 -4 -57 4 -8 -7 -4 -26 8 -32 20
-35 20 -66 4 -18 -9 -38 -26 -45 -38 -7 -13 -20 -23 -30 -23 -10 0 -23 -8 -29
-17 -9 -17 -12 -16 -31 7 -12 14 -26 24 -31 22 -5 -1 -7 1 -5 5 7 12 -21 48
-30 39 -4 -4 -2 -10 5 -14 8 -6 3 -17 -16 -37 -15 -16 -26 -33 -25 -37 2 -4
-4 -5 -12 -2 -19 8 -19 9 2 33 21 26 26 54 8 47 -9 -3 -12 0 -8 10 3 7 0 14
-6 14 -6 0 -11 -6 -11 -12 0 -8 -12 -13 -29 -13 -16 0 -27 4 -24 8 3 5 -4 15
-16 23 -12 8 -21 21 -21 28 0 8 -7 19 -15 26 -19 16 -19 40 0 40 8 0 15 -6 15
-14 0 -8 4 -17 9 -20 5 -3 8 2 7 12 -1 13 6 16 29 14 27 -2 28 -1 12 11 -9 8
-17 21 -17 29 0 17 -29 58 -30 41 0 -6 5 -15 10 -18 12 -8 13 -42 1 -49 -4 -3
-22 -1 -40 4 -24 7 -31 6 -31 -6 0 -15 -1 -15 -39 -19 l-25 -2 27 19 c15 11
27 26 27 34 0 8 8 18 18 21 9 4 45 27 79 52 93 69 117 85 128 87 35 6 95 26
95 33 0 4 16 13 35 21 19 8 35 17 35 21 0 5 11 20 25 35 14 15 25 33 25 41 0
39 80 153 107 153 7 0 13 5 13 10 0 6 17 18 38 27 75 34 89 49 96 100 10 65
52 156 79 169 39 18 132 69 137 75 22 24 118 69 157 75 47 6 49 5 48 -18 0
-30 -21 -58 -43 -58 -8 0 -12 -3 -8 -7 4 -5 12 -8 18 -8 6 0 12 -8 14 -17 1
-10 -4 -18 -11 -18 -7 0 -19 -8 -26 -17 -11 -15 -11 -16 0 -6 7 6 20 9 27 6
12 -4 18 7 15 29 0 4 8 10 19 13 11 4 20 11 20 17 0 5 -8 7 -17 4 -17 -6 -17
-5 -1 8 12 9 17 23 14 43 -3 27 -1 29 23 25 14 -2 49 -15 76 -28 41 -19 58
-22 93 -15 23 5 51 16 61 25 9 9 20 16 23 16 3 0 64 59 136 130 71 72 135 130
141 130 6 0 11 7 11 15 0 8 5 15 11 15 7 0 80 67 163 149 160 158 297 291 392
381 l58 55 87 2 c76 1 92 5 126 27 49 34 96 35 111 2z m-2080 -188 c6 -24 23
-92 38 -153 14 -60 30 -114 34 -120 13 -16 33 -162 26 -189 -9 -36 -31 -32
-50 8 -21 45 -73 251 -86 344 -17 121 13 208 38 110z m312 -1123 c0 -9 -9 -15
-25 -15 -29 0 -34 16 -7 23 30 8 32 7 32 -8z m210 -25 c0 -11 5 -20 10 -20 6
0 10 5 10 11 0 5 4 8 9 5 5 -4 4 -17 -2 -31 -11 -23 -13 -23 -24 -8 -12 16
-15 15 -33 -5 -28 -29 -31 -28 -19 8 6 17 15 30 21 30 6 0 8 7 4 15 -3 9 0 15
9 15 8 0 15 -9 15 -20z m-380 -70 c0 -5 -2 -10 -4 -10 -2 0 -12 -3 -20 -6 -12
-5 -15 -2 -10 10 7 17 34 22 34 6z m45 -1 c11 -17 2 -18 -19 -3 -17 12 -17 14
-4 14 9 0 20 -5 23 -11z m490 -7 c-3 -3 -11 0 -18 7 -9 10 -8 11 6 5 10 -3 15
-9 12 -12z m-245 -58 c0 0 -9 -9 -20 -19 -19 -18 -20 -17 -20 3 0 15 6 20 20
19 11 -1 20 -2 20 -3z m815 -113 c3 -5 1 -12 -5 -16 -5 -3 -10 1 -10 9 0 18 6
21 15 7z m-755 -11 c0 -5 -4 -10 -10 -10 -5 0 -10 5 -10 10 0 6 5 10 10 10 6
0 10 -4 10 -10z m-140 -47 c15 4 17 1 10 -22 -13 -45 -56 -111 -72 -111 -15 0
-8 63 10 79 9 9 17 22 18 29 4 48 6 57 11 39 3 -12 11 -17 23 -14z m-194 -63
c0 -21 -11 -26 -21 -10 -7 11 2 30 13 30 4 0 8 -9 8 -20z m928 1 c4 -5 -3 -7
-14 -4 -23 6 -26 13 -6 13 8 0 17 -4 20 -9z m-890 -137 c9 -21 24 -44 32 -51
25 -18 22 -99 -3 -125 -20 -20 -50 -17 -37 3 3 5 1 16 -5 23 -6 7 -9 21 -5 30
6 17 -35 113 -68 155 -10 13 -15 27 -12 32 3 5 2 9 -3 8 -23 -4 -24 3 -3 26
l23 24 33 -43 c18 -23 40 -60 48 -82z m932 105 c3 -6 1 -15 -6 -19 -7 -4 -9
-13 -6 -19 4 -6 0 -11 -8 -11 -9 0 -16 -6 -16 -13 0 -7 -9 -13 -20 -13 -26 0
-25 7 3 31 l22 20 -27 3 c-16 2 -28 9 -28 15 0 16 76 21 86 6z m96 -31 c-7 -7
-12 -8 -12 -2 0 6 3 14 7 17 3 4 9 5 12 2 2 -3 -1 -11 -7 -17z m-457 -7 c3 -5
1 -12 -5 -16 -5 -3 -10 1 -10 9 0 18 6 21 15 7z m45 -6 c0 -8 -4 -15 -9 -15
-5 0 -11 7 -15 15 -3 9 0 15 9 15 8 0 15 -7 15 -15z m390 5 c0 -5 -2 -10 -4
-10 -3 0 -8 5 -11 10 -3 6 -1 10 4 10 6 0 11 -4 11 -10z m-290 -55 c-7 -8 -17
-12 -22 -9 -5 3 -1 15 9 26 20 22 32 6 13 -17z m250 5 c0 -5 -5 -10 -11 -10
-5 0 -7 5 -4 10 3 6 8 10 11 10 2 0 4 -4 4 -10z m345 -32 c-8 -35 -27 -57 -85
-99 -37 -27 -101 -59 -118 -59 -14 0 -82 -78 -82 -94 0 -17 -24 -38 -33 -29
-4 3 -2 12 3 18 6 7 10 51 11 99 1 79 2 86 17 74 10 -7 21 -19 25 -25 9 -14
89 -18 101 -5 4 4 11 7 14 7 12 1 66 38 100 69 31 30 40 50 25 59 -5 2 -2 2 5
1 6 -2 12 1 12 6 0 6 3 10 6 10 3 0 2 -15 -1 -32z m-2039 -50 c4 -7 3 -8 -4
-4 -8 5 -10 -2 -5 -25 5 -25 3 -30 -7 -24 -10 6 -12 4 -7 -9 4 -10 -1 -24 -14
-37 -20 -20 -22 -56 -2 -52 5 1 10 -6 9 -15 -1 -20 -51 -72 -69 -72 -7 0 -6
-4 3 -10 12 -7 10 -9 -7 -8 -14 2 -19 7 -15 17 4 11 0 13 -17 8 -21 -5 -22 -4
-8 11 13 15 14 20 1 36 -20 28 -17 46 6 46 13 0 18 5 14 15 -5 12 -10 13 -20
4 -11 -9 -14 -7 -14 11 0 26 37 90 51 90 6 0 8 4 5 9 -8 12 7 16 55 18 21 1
42 -3 45 -9z m1374 -63 c10 -12 10 -15 -4 -15 -9 0 -16 7 -16 15 0 8 2 15 4
15 2 0 9 -7 16 -15z m-1552 -186 c-6 -4 -18 -5 -26 -1 -12 4 -12 7 4 19 14 10
19 10 25 1 5 -7 3 -16 -3 -19z m132 21 c0 -5 -5 -10 -11 -10 -5 0 -7 5 -4 10
3 6 8 10 11 10 2 0 4 -4 4 -10z m1559 -36 c6 -15 10 -28 8 -31 -6 -5 -31 27
-33 43 -4 23 12 16 25 -12z m-1796 -15 c7 -11 17 -19 24 -19 7 0 13 -4 13 -8
0 -4 32 -9 70 -10 39 -1 70 2 70 7 0 8 23 6 77 -5 16 -3 21 -9 16 -22 -7 -16
-6 -16 11 1 24 23 28 22 54 -18 15 -24 29 -34 43 -32 34 3 33 -20 0 -38 -33
-16 -39 -33 -19 -53 9 -9 9 -12 0 -12 -6 0 -14 11 -18 25 -3 14 -11 25 -17 25
-6 0 -21 10 -35 23 l-24 22 8 -30 c4 -16 14 -35 22 -41 11 -8 12 -13 3 -18 -6
-4 -9 -12 -6 -17 8 -12 -6 -11 -25 1 -11 7 -11 10 -2 10 7 0 10 5 7 10 -3 6
-14 10 -24 10 -10 0 -21 9 -24 20 -3 11 -10 20 -16 20 -6 0 -8 -7 -5 -15 4
-11 2 -13 -9 -9 -10 3 -18 -2 -22 -15 -3 -12 -13 -21 -22 -21 -12 0 -11 6 6
35 l20 35 -36 15 c-46 19 -66 19 -30 -1 30 -16 35 -45 12 -64 -13 -10 -19 -9
-35 5 -11 10 -23 15 -27 11 -4 -4 6 -18 22 -31 l30 -24 -37 2 c-20 1 -36 7
-35 12 1 6 -8 9 -20 8 -15 -2 -23 3 -23 12 0 13 -7 16 -35 15 -3 0 -18 6 -33
13 -15 8 -40 13 -57 11 -16 -2 -38 -4 -47 -5 -12 0 -18 -9 -19 -27 0 -15 -3
-21 -6 -14 -2 6 -14 12 -26 11 -12 0 -16 -3 -9 -6 25 -10 11 -23 -25 -23 -24
0 -45 -8 -61 -22 -23 -21 -25 -22 -17 -3 4 11 13 38 19 60 24 85 89 145 156
145 11 0 20 7 20 15 0 18 16 20 26 3 5 -7 10 -4 15 11 16 41 79 47 102 10z
m1850 -105 c4 -4 7 -21 8 -38 0 -17 4 -40 8 -51 10 -25 -4 -86 -33 -150 -13
-27 -26 -62 -30 -76 -3 -16 -27 -43 -61 -68 -66 -50 -75 -54 -95 -41 -13 9
-13 11 0 20 8 5 11 10 5 10 -5 0 -3 5 5 10 11 7 17 5 22 -8 6 -15 7 -15 7 -1
1 9 28 44 61 77 33 34 60 67 61 74 3 59 11 120 21 156 8 32 8 46 -1 55 -6 6
-11 36 -10 67 l1 55 11 -42 c7 -23 15 -45 20 -49z m-1468 46 c3 -5 2 -10 -4
-10 -5 0 -13 5 -16 10 -3 6 -2 10 4 10 5 0 13 -4 16 -10z m817 -62 c-7 -7 -12
-8 -12 -2 0 6 3 14 7 17 3 4 9 5 12 2 2 -3 -1 -11 -7 -17z m48 13 c0 -5 9 -11
19 -14 14 -3 18 -11 14 -26 -3 -12 -1 -21 6 -21 6 0 11 9 11 20 0 17 2 17 28
-6 22 -22 34 -25 70 -21 24 3 42 0 42 -5 0 -6 11 -7 25 -4 23 6 36 -6 18 -17
-5 -2 -3 -3 2 -2 6 1 20 -1 32 -6 19 -7 21 -12 14 -32 -10 -27 -4 -40 22 -50
26 -10 21 -36 -9 -43 -16 -4 -21 -9 -15 -14 7 -4 -3 -7 -21 -7 -25 0 -43 10
-73 39 -31 30 -48 38 -77 38 -20 0 -44 7 -52 16 -9 8 -16 13 -16 9 0 -4 -7 1
-16 9 -9 10 -26 14 -42 11 -14 -2 -32 1 -39 7 -7 6 -13 8 -13 5 0 -7 118 -97
126 -97 3 0 4 6 1 13 -4 10 5 9 31 -5 20 -10 41 -18 47 -18 5 0 18 -12 28 -26
19 -25 19 -25 -2 -31 -15 -4 -21 -13 -21 -35 0 -17 -8 -42 -18 -56 -10 -15
-22 -35 -25 -44 -11 -31 -27 -19 -27 20 0 37 -26 171 -34 180 -8 7 -65 -22
-71 -36 -7 -19 4 -34 22 -28 8 3 12 2 9 -3 -10 -16 -56 -10 -56 8 0 23 -19 41
-36 34 -19 -7 -18 -23 1 -23 10 0 15 -10 15 -30 0 -16 5 -30 10 -30 6 0 10 -7
10 -15 0 -18 38 -15 50 4 5 9 10 10 14 3 3 -6 2 -13 -4 -17 -17 -10 0 -26 21
-20 23 8 25 -8 4 -25 -9 -7 -13 -20 -10 -27 3 -8 -4 -27 -16 -41 l-21 -27 7
33 c10 49 -2 91 -25 85 -11 -3 -22 -14 -25 -24 -4 -10 -11 -19 -16 -19 -14 0
-11 17 6 34 20 20 19 26 -4 26 -11 0 -22 4 -25 9 -3 4 -31 11 -63 16 -105 13
-128 8 -105 -23 7 -9 15 -25 18 -34 4 -10 10 -18 15 -18 5 0 18 -9 29 -20 22
-22 18 -45 -6 -36 -19 7 -30 -39 -16 -69 9 -19 7 -26 -10 -37 l-20 -13 22 -38
c12 -20 28 -37 36 -37 25 0 15 -25 -11 -26 -15 -1 -25 3 -25 12 0 7 -24 26
-52 40 -29 15 -59 34 -66 43 -10 12 -15 13 -18 4 -8 -18 -39 -16 -54 2 -10 12
-16 13 -24 5 -8 -8 -6 -16 9 -27 18 -14 18 -15 2 -9 -10 3 -23 6 -28 6 -5 0
-8 12 -7 27 2 21 -2 28 -27 35 -62 19 -95 21 -95 4 0 -8 5 -18 10 -21 20 -12
9 -25 -21 -25 -17 0 -28 -4 -24 -10 3 -6 -1 -7 -9 -4 -9 3 -16 1 -16 -5 0 -14
43 -14 57 0 8 8 17 8 32 0 11 -6 29 -15 40 -20 10 -6 28 -7 39 -4 17 4 20 1
15 -16 -4 -17 -2 -20 13 -14 14 5 16 3 11 -11 -6 -14 -3 -16 15 -10 20 6 21 5
6 -10 -9 -9 -22 -16 -28 -16 -6 0 -8 -4 -5 -10 4 -6 -8 -10 -29 -10 -19 0 -37
4 -40 9 -6 9 -90 51 -102 51 -4 0 -1 -6 5 -14 9 -10 8 -15 -4 -20 -20 -7 -19
-25 2 -22 21 3 65 -18 85 -41 10 -11 15 -34 15 -58 -1 -38 -3 -40 -19 -26 -10
9 -18 21 -18 28 0 7 -12 13 -26 13 -19 0 -25 -4 -20 -15 4 -12 2 -13 -14 -3
-16 10 -23 10 -37 -5 -12 -11 -13 -17 -5 -17 7 0 10 -4 7 -10 -3 -5 -1 -10 6
-10 7 0 9 -8 4 -22 -3 -13 -7 -28 -7 -35 -2 -15 -38 -25 -38 -10 0 7 -17 12
-42 12 -24 1 -89 5 -145 9 -77 6 -103 5 -103 -4 0 -6 -4 -9 -9 -6 -5 3 -11 -4
-14 -15 -5 -18 -11 -20 -32 -15 -20 5 -26 3 -23 -6 8 -23 85 -31 123 -14 27
13 42 14 91 4 44 -9 59 -9 62 0 4 13 22 17 22 5 -1 -18 -31 -47 -38 -37 -5 8
-24 8 -67 1 -47 -7 -83 -6 -165 8 -58 9 -115 17 -127 17 -17 0 -23 6 -23 22 0
19 -4 21 -51 17 -33 -2 -49 1 -45 7 8 14 92 56 141 72 22 7 65 27 95 45 30 18
66 36 80 40 14 4 34 14 45 21 11 8 27 14 37 14 24 0 64 58 72 105 14 85 18 96
44 110 75 43 87 53 91 76 1 13 14 35 27 48 25 25 31 41 14 41 -12 0 23 72 42
87 7 5 20 13 29 16 13 4 16 1 11 -15 -4 -17 -1 -19 17 -13 15 5 21 2 21 -9 0
-26 15 -18 27 14 6 16 20 33 30 36 10 3 29 11 43 17 21 8 22 11 8 14 -29 7
-21 17 44 48 33 17 73 36 88 44 31 15 66 68 62 94 -2 9 1 17 6 17 22 0 112
-54 112 -67 0 -8 7 -13 18 -11 11 2 16 11 14 23 -3 16 -1 18 9 8 20 -20 29
-15 29 15 0 16 3 32 7 35 9 10 23 9 23 -2z m264 -36 c-7 -18 7 -20 24 -3 9 9
17 6 35 -14 13 -14 40 -31 60 -37 25 -9 34 -17 30 -27 -4 -10 -9 -11 -18 -4
-20 16 -25 0 -8 -26 22 -35 9 -41 -26 -13 -32 26 -41 45 -16 35 8 -3 15 -1 15
4 0 9 -8 12 -27 9 -3 0 -10 6 -15 15 -5 9 -17 16 -27 16 -10 0 -24 7 -32 16
-8 10 -23 14 -41 12 -16 -3 -31 -1 -34 4 -10 17 8 28 46 28 31 0 38 -3 34 -15z
m146 -25 c0 -5 -2 -10 -4 -10 -3 0 -8 5 -11 10 -3 6 -1 10 4 10 6 0 11 -4 11
-10z m-1534 -101 c19 -11 38 -18 43 -15 13 9 21 -7 12 -23 -6 -9 -15 -6 -37
12 -16 13 -38 29 -49 35 -11 6 -16 12 -11 12 5 0 24 -9 42 -21z m-122 -11 c20
9 25 8 30 -4 11 -28 6 -44 -12 -44 -22 0 -84 44 -75 53 3 4 12 2 20 -5 10 -8
20 -8 37 0z m221 -53 c14 -11 9 -85 -6 -85 -5 0 -9 7 -9 15 0 8 -3 15 -7 15
-5 0 -8 19 -7 43 2 54 5 67 11 42 3 -11 11 -24 18 -30z m-368 4 c6 -6 9 -19 6
-28 -4 -13 -3 -13 5 -2 6 8 23 15 38 17 19 2 24 0 15 -5 -17 -11 -5 -32 14
-25 8 3 16 13 18 22 3 11 5 9 6 -7 1 -26 127 -155 142 -145 11 7 11 1 0 -29
-13 -32 7 -59 45 -64 37 -5 36 -4 23 -41 -12 -35 -24 -41 -33 -17 -4 12 -10
14 -25 5 -30 -16 -38 -12 -46 18 -5 22 -23 51 -61 101 -2 2 -15 -4 -30 -13
-18 -13 -24 -24 -21 -38 4 -14 1 -18 -8 -14 -7 2 -19 -1 -25 -9 -13 -16 12
-45 39 -45 9 0 30 -14 46 -30 46 -48 125 -61 139 -24 3 8 10 14 16 14 6 0 8
-4 5 -10 -10 -16 11 -11 26 6 10 13 10 17 0 24 -10 6 -8 15 10 39 28 38 43 41
27 5 -10 -20 -9 -27 2 -34 19 -12 -2 -32 -88 -84 -54 -34 -72 -40 -137 -44
-41 -2 -75 -9 -75 -13 0 -5 -6 -9 -13 -9 -8 0 -20 18 -27 41 -8 22 -26 50 -40
63 -15 12 -32 35 -39 52 -9 23 -10 24 -6 4 3 -14 8 -40 12 -58 l6 -33 -39 3
c-37 3 -39 5 -37 35 1 26 -1 30 -12 20 -9 -8 -10 -19 -4 -35 12 -31 11 -45 -1
-37 -5 3 -10 0 -10 -7 -1 -7 -10 -2 -21 12 -19 22 -22 23 -30 8 -12 -21 -43
-12 -34 10 5 14 -10 42 -24 42 -3 0 -7 -18 -8 -40 -3 -60 -7 -79 -14 -74 -4 2
-12 -3 -19 -12 -16 -18 -69 -10 -86 14 -8 11 -25 15 -58 13 -25 -1 -52 2 -59
6 -6 4 -16 8 -22 8 -5 0 -10 5 -11 10 -2 20 -16 45 -24 40 -4 -3 -7 3 -6 12 0
9 -4 18 -11 20 -8 3 -11 -3 -8 -15 3 -18 0 -19 -25 -12 -16 4 -31 6 -34 3 -3
-3 -8 2 -12 11 -7 19 -24 22 -24 3 0 -6 14 -18 30 -25 34 -15 40 -32 11 -32
-14 0 -18 -5 -14 -20 4 -15 0 -20 -15 -20 -11 0 -22 3 -25 8 -2 4 -2 1 -1 -5
2 -7 -1 -13 -6 -13 -6 0 -10 -10 -10 -22 0 -19 2 -20 18 -6 9 8 24 18 32 22 8
4 6 0 -4 -8 -17 -14 -16 -20 5 -18 3 1 6 -4 6 -11 0 -7 4 -20 8 -30 5 -13 3
-16 -8 -11 -12 4 -18 -2 -23 -20 -3 -14 -11 -26 -16 -26 -6 0 -8 -6 -5 -14 3
-8 -2 -17 -11 -21 -9 -3 -13 -3 -10 1 4 4 -2 18 -12 32 -11 13 -20 33 -20 44
0 10 -7 21 -15 24 -10 4 -13 13 -10 25 4 11 2 19 -4 19 -15 0 -14 -72 1 -107
6 -15 12 -31 12 -35 1 -3 4 -10 9 -14 4 -4 7 -17 7 -29 0 -11 5 -26 11 -32 8
-8 5 -14 -10 -22 -19 -11 -21 -9 -21 20 0 17 -7 59 -16 92 -9 34 -14 83 -12
109 2 26 0 48 -4 48 -4 0 -5 15 -1 33 11 63 103 163 176 192 23 9 62 30 86 46
25 16 53 29 63 29 11 0 29 5 41 11 18 9 20 9 10 -2 -20 -20 -16 -27 27 -48 39
-19 40 -19 40 -1 0 10 -5 22 -11 26 -8 4 -7 9 2 15 10 6 11 9 2 9 -26 0 -12
19 20 25 17 4 38 12 45 17 9 8 12 6 12 -6 0 -9 7 -16 15 -16 9 0 15 9 15 22
l0 21 24 -22 25 -23 58 56 c32 31 63 56 70 56 7 0 17 -9 23 -21 6 -11 17 -18
23 -16 13 5 13 7 3 50 -7 28 2 35 21 16z m283 -25 c18 -17 6 -18 -44 0 -23 8
-33 16 -25 19 19 7 50 -2 69 -19z m275 16 c-3 -5 -12 -10 -18 -10 -7 0 -6 4 3
10 19 12 23 12 15 0z m855 -10 c0 -5 -4 -10 -10 -10 -5 0 -10 5 -10 10 0 6 5
10 10 10 6 0 10 -4 10 -10z m-868 -32 c-7 -7 -12 -8 -12 -2 0 6 3 14 7 17 3 4
9 5 12 2 2 -3 -1 -11 -7 -17z m-354 -28 l-1 -31 -24 23 c-17 16 -20 24 -11 30
25 15 37 8 36 -22z m136 -44 c15 -52 13 -86 -5 -86 -5 0 -6 13 -3 29 5 23 2
32 -15 40 -24 13 -29 44 -6 35 18 -7 20 7 3 24 -8 8 -9 12 -1 12 7 0 19 -24
27 -54z m1086 44 c0 -5 -4 -10 -10 -10 -5 0 -10 5 -10 10 0 6 5 10 10 10 6 0
10 -4 10 -10z m160 0 c0 -5 -2 -10 -4 -10 -3 0 -8 5 -11 10 -3 6 -1 10 4 10 6
0 11 -4 11 -10z m-1775 -20 c3 -5 1 -10 -4 -10 -6 0 -11 5 -11 10 0 6 2 10 4
10 3 0 8 -4 11 -10z m1409 -29 c4 -5 -3 -7 -14 -4 -23 6 -26 13 -6 13 8 0 17
-4 20 -9z m362 -46 c17 -42 18 -48 2 -39 -8 4 -9 3 -5 -2 14 -15 83 -19 167
-10 49 5 51 4 20 -5 -19 -5 -57 -15 -85 -21 -27 -6 -67 -24 -88 -40 -20 -16
-41 -27 -46 -24 -5 4 -7 -2 -4 -12 2 -10 -5 -26 -16 -36 -12 -11 -21 -24 -21
-30 0 -6 -7 -23 -14 -38 -8 -16 -14 -36 -14 -45 2 -30 -13 -96 -29 -128 -18
-35 -109 -146 -129 -158 -8 -4 -14 -14 -14 -21 0 -7 -17 -27 -38 -44 -22 -17
-45 -44 -52 -61 -7 -17 -18 -31 -25 -31 -23 0 -22 34 1 52 12 10 28 38 35 63
9 29 20 47 34 51 11 4 24 12 28 18 6 8 10 8 14 -1 8 -21 21 -15 28 15 4 16 24
40 48 57 40 30 42 33 53 110 18 120 38 179 80 232 22 26 44 51 49 55 6 4 6 8
2 8 -5 0 -23 -11 -41 -25 -18 -14 -36 -25 -39 -25 -4 0 5 21 18 47 14 25 30
64 37 85 14 47 25 48 44 3z m-1141 -125 c-3 -5 -12 -10 -18 -10 -7 0 -6 4 3
10 19 12 23 12 15 0z m605 -134 c0 -11 -19 -15 -25 -6 -3 5 1 10 9 10 9 0 16
-2 16 -4z m-1100 -26 c0 -5 -4 -10 -10 -10 -5 0 -10 5 -10 10 0 6 5 10 10 10
6 0 10 -4 10 -10z m1342 -7 c20 -18 24 -45 6 -38 -13 6 -41 55 -30 55 3 0 14
-7 24 -17z m-1266 -79 c5 -38 1 -54 -32 -121 -41 -83 -103 -182 -125 -199 -8
-6 -46 -21 -86 -33 -39 -12 -78 -27 -85 -34 -7 -7 -39 -25 -72 -40 -61 -28
-112 -33 -181 -17 -22 5 -42 5 -45 1 -3 -5 -19 -11 -35 -15 -22 -5 -71 -47
-165 -141 -74 -74 -140 -135 -147 -135 -7 0 -13 -4 -13 -9 0 -5 -8 -11 -17
-14 -10 -4 -29 -16 -43 -27 -16 -13 -43 -22 -70 -23 l-45 -2 0 45 c1 34 9 57
33 92 18 26 32 51 32 56 0 4 11 19 25 32 14 13 25 28 25 34 0 13 161 172 205
203 17 12 41 43 54 70 25 49 55 86 64 77 3 -3 17 11 33 31 15 20 40 43 55 50
25 14 33 12 91 -14 76 -34 117 -73 99 -95 -9 -11 -9 -16 0 -21 8 -6 7 -10 -5
-17 -13 -7 -14 -13 -6 -23 9 -11 7 -20 -7 -39 -10 -14 -22 -26 -26 -26 -4 0
-3 -6 3 -12 5 -7 19 -24 30 -38 l19 -25 1 40 c0 36 34 151 53 182 4 6 -5 22
-23 36 -25 22 -30 33 -29 69 1 43 1 43 13 15 7 -15 16 -24 20 -20 4 4 4 0 1
-8 -6 -16 7 -31 38 -42 12 -5 16 -3 11 5 -5 8 -2 9 9 5 10 -3 17 -2 17 4 0 6
5 7 10 4 14 -9 13 -78 -2 -93 -12 -12 -10 -13 14 -16 7 0 17 -19 23 -40 6 -22
16 -41 22 -43 30 -10 164 128 215 221 21 38 22 46 3 46 -9 0 -16 14 -20 38 -3
20 -8 47 -11 59 -3 16 1 22 18 25 33 6 46 -8 54 -58z m1333 -11 c23 -64 21
-89 -6 -79 -8 3 -12 2 -9 -3 6 -9 -25 -44 -60 -68 -20 -13 -27 -14 -37 -3 -9
10 -9 11 2 5 11 -6 13 -4 8 7 -4 12 0 14 16 10 20 -5 21 -4 7 13 -14 17 -13
18 2 12 36 -13 50 20 46 104 -2 43 0 75 3 71 4 -4 16 -35 28 -69z m-1889 47
c0 -5 -2 -10 -4 -10 -3 0 -8 5 -11 10 -3 6 -1 10 4 10 6 0 11 -4 11 -10z
m1780 -11 c7 -11 9 -23 6 -26 -8 -9 -36 17 -36 33 0 21 18 17 30 -7z m-1646
-4 c3 -8 1 -15 -4 -15 -6 0 -10 7 -10 15 0 8 2 15 4 15 2 0 6 -7 10 -15z m501
-5 c-20 -22 -31 -20 -22 5 4 8 14 15 23 15 16 0 16 -2 -1 -20z m-201 -6 c8
-21 8 -21 -9 -28 -11 -4 -15 1 -15 19 0 28 15 33 24 9z m-354 -29 c0 -5 -5 -3
-10 5 -5 8 -10 20 -10 25 0 6 5 3 10 -5 5 -8 10 -19 10 -25z m85 14 c-10 -15
-25 -10 -19 6 4 8 10 12 15 9 5 -3 7 -10 4 -15z m-195 1 c0 -5 -5 -10 -11 -10
-5 0 -7 5 -4 10 3 6 8 10 11 10 2 0 4 -4 4 -10z m37 -49 c-6 -2 -13 1 -15 8
-2 6 -8 9 -13 5 -13 -8 -11 10 3 24 10 10 15 7 24 -10 9 -17 10 -24 1 -27z
m1348 -71 c-3 -5 5 -21 19 -34 14 -13 26 -26 26 -30 0 -12 -23 -6 -42 11 -19
17 -25 63 -7 63 5 0 7 -4 4 -10z m101 -1 c4 -8 9 -7 15 2 6 10 9 11 9 2 0 -7
5 -12 11 -10 6 1 19 -10 28 -24 9 -14 30 -45 48 -68 18 -23 39 -64 49 -89 9
-26 19 -54 22 -62 3 -8 6 -19 6 -25 1 -5 6 -19 13 -31 10 -18 7 -23 -23 -47
-18 -15 -33 -31 -33 -35 3 -16 -14 -72 -22 -72 -5 0 -8 -3 -7 -7 1 -5 -6 -22
-15 -40 -9 -18 -17 -40 -17 -49 0 -10 -11 -36 -25 -59 -22 -38 -31 -44 -106
-69 -45 -15 -83 -25 -86 -22 -3 2 0 13 6 24 6 12 11 33 11 47 0 14 5 35 10 45
6 11 6 21 1 24 -5 3 -12 26 -15 51 -4 25 -14 57 -22 73 -7 15 -14 34 -14 42 0
9 -6 24 -14 35 -7 11 -16 38 -20 60 -12 68 -16 76 -36 70 -10 -3 -22 0 -26 6
-5 9 -2 10 9 6 10 -4 17 -1 17 5 0 7 21 -8 46 -32 45 -45 74 -95 74 -131 0
-11 4 -27 10 -37 5 -9 19 -50 30 -90 13 -45 26 -72 33 -69 7 2 12 9 12 15 0 5
3 14 8 18 4 4 7 17 7 29 0 12 3 24 6 28 10 10 44 -17 44 -35 0 -9 3 -24 7 -34
8 -22 63 88 63 128 0 15 4 30 10 33 12 7 10 85 -2 85 -4 0 -7 3 -6 8 3 14 -25
92 -34 92 -4 0 -8 7 -8 15 0 8 -4 15 -8 15 -5 0 -19 24 -31 54 -19 43 -27 53
-42 49 -12 -3 -21 1 -25 11 -9 24 3 31 22 15 15 -12 16 -11 9 11 -4 14 -12 31
-17 38 -7 8 -7 12 0 12 6 0 14 -5 18 -11z m-60 -17 c1 -7 0 -8 -3 -2 -2 5 -9
8 -14 4 -5 -3 -9 0 -9 6 0 15 23 7 26 -8z m-276 -102 c0 -5 -5 -10 -11 -10 -5
0 -7 5 -4 10 3 6 8 10 11 10 2 0 4 -4 4 -10z m108 -32 c-2 -6 -12 -16 -21 -22
-13 -8 -20 -7 -27 4 -6 9 -5 17 3 22 19 12 49 9 45 -4z m-103 -18 c3 -5 1 -19
-6 -31 -10 -20 -12 -21 -21 -5 -16 29 10 64 27 36z m190 -43 c-8 -20 -36 -31
-29 -11 14 45 15 47 25 37 5 -5 7 -17 4 -26z m-221 -44 c-4 -16 -3 -25 1 -20
5 4 16 -4 25 -19 16 -24 18 -24 34 -8 9 9 20 13 24 10 3 -4 1 -11 -6 -15 -7
-4 -19 -32 -27 -62 -15 -54 -12 -89 6 -89 5 0 9 -6 9 -14 0 -7 7 -27 15 -42
24 -46 19 -61 -10 -34 -14 13 -25 29 -25 35 0 7 -11 24 -25 39 -14 15 -25 32
-25 37 0 6 -4 8 -9 4 -18 -10 -9 -67 11 -73 19 -5 25 -22 8 -22 -7 0 -8 -4 -1
-12 6 -7 29 -35 51 -63 55 -68 55 -68 79 -88 12 -10 26 -15 31 -12 6 4 10 1
10 -5 0 -13 -107 -5 -150 12 -14 5 -48 13 -76 18 -45 7 -58 5 -99 -16 -32 -16
-56 -37 -70 -62 -12 -20 -64 -79 -116 -130 -52 -51 -114 -113 -139 -138 -46
-46 -91 -74 -117 -74 -12 0 -14 8 -8 38 4 20 9 48 12 61 2 13 15 47 28 75 76
165 115 274 121 341 3 33 14 78 24 100 9 22 20 60 23 85 17 123 50 157 40 40
-7 -71 6 -82 41 -32 22 33 25 42 16 72 -13 47 -12 50 6 18 15 -28 36 -38 32
-15 -2 7 5 11 17 9 44 -6 60 -10 60 -12 0 -1 9 -4 20 -5 12 -1 36 -9 55 -18
49 -22 83 -31 99 -28 9 2 12 -4 8 -18 -3 -12 -1 -19 3 -16 5 3 11 -1 14 -7 4
-7 4 -2 0 12 -3 14 -5 35 -5 48 1 17 -6 24 -29 29 -36 7 -37 13 -7 58 27 42
29 43 21 8z m124 -20 c-2 -10 4 -18 12 -19 31 -2 33 -4 16 -17 -10 -7 -17 -20
-15 -28 3 -18 -11 -49 -22 -49 -5 0 -9 16 -9 36 0 19 -5 45 -11 56 -9 16 -8
23 2 29 21 13 30 11 27 -8z m89 -375 c-3 -8 -6 -5 -6 6 -1 11 2 17 5 13 3 -3
4 -12 1 -19z"/>
<path d="M5481 5669 c-13 -5 -53 -36 -88 -69 -35 -33 -75 -67 -88 -76 -14 -9
-25 -22 -25 -29 0 -7 -12 -21 -27 -31 -16 -10 -74 -65 -131 -123 -57 -58 -108
-110 -113 -116 -6 -5 -25 -26 -42 -45 -18 -19 -61 -65 -97 -101 -136 -140
-167 -199 -114 -219 32 -13 26 -14 60 16 16 14 47 34 69 44 22 11 58 37 80 59
22 23 45 41 52 41 6 0 16 6 20 13 11 18 94 57 121 57 15 0 20 5 16 15 -4 8 -1
15 5 15 20 0 141 140 141 163 0 5 18 32 40 59 22 28 40 57 40 64 0 8 4 14 8
14 5 0 15 12 23 28 7 15 27 50 44 77 52 86 68 122 62 139 -7 18 -21 19 -56 5z"/>
<path d="M5277 5059 c7 -7 15 -10 18 -7 3 3 -2 9 -12 12 -14 6 -15 5 -6 -5z"/>
<path d="M5175 5003 c-26 -5 -51 -63 -32 -75 23 -15 24 -15 46 55 5 15 9 26 8
26 -1 -1 -11 -4 -22 -6z"/>
<path d="M5260 5002 c0 -4 11 -9 26 -10 14 -1 23 2 19 8 -7 12 -45 14 -45 2z"/>
<path d="M5340 4981 c0 -22 -26 -36 -33 -18 -3 9 -9 9 -26 -1 -17 -10 -25 -10
-41 0 -32 20 -36 -1 -5 -27 23 -19 26 -24 13 -25 -21 0 -25 -35 -5 -47 20 -13
61 -74 86 -128 13 -27 33 -61 45 -75 26 -31 56 -28 56 6 0 15 6 24 16 24 17 0
16 12 -4 78 -6 19 -7 30 -1 27 5 -4 9 3 9 14 0 11 -4 23 -10 26 -5 3 -10 1
-10 -4 0 -6 -4 -11 -9 -11 -11 0 -8 46 2 57 15 14 6 23 -23 23 -31 0 -41 16
-15 26 20 8 19 44 -2 60 -26 19 -43 17 -43 -5z m35 -49 c-12 -13 -24 22 -12
37 10 12 13 11 15 -8 2 -13 1 -26 -3 -29z m-6 -213 c-13 -26 -20 -21 -12 9 3
12 9 19 14 16 5 -3 4 -14 -2 -25z"/>
<path d="M4255 4980 c3 -5 13 -10 21 -10 8 0 14 5 14 10 0 6 -9 10 -21 10 -11
0 -17 -4 -14 -10z"/>
<path d="M4478 4941 c8 -5 13 -22 11 -42 -2 -23 1 -33 9 -31 7 1 12 -2 12 -8
0 -5 7 -10 15 -10 18 0 20 26 2 37 -7 4 -18 20 -24 36 -7 15 -18 27 -25 27
-10 0 -10 -2 0 -9z"/>
<path d="M4115 4932 c-26 -6 -65 -32 -65 -44 0 -6 8 -7 17 -4 10 4 14 4 10 0
-4 -4 5 -13 19 -21 32 -16 31 -16 31 2 0 9 -6 14 -13 11 -6 -2 -14 4 -17 14
-3 11 0 17 7 14 14 -5 40 11 35 23 -2 5 -13 7 -24 5z"/>
<path d="M4355 4910 c-7 -12 33 -49 53 -50 6 0 12 -5 12 -12 0 -6 2 -9 5 -7 8
8 -7 49 -16 43 -5 -2 -14 4 -21 16 -14 22 -24 25 -33 10z"/>
<path d="M4438 4895 c2 -14 8 -25 13 -25 14 0 11 26 -5 39 -11 9 -12 6 -8 -14z"/>
<path d="M5030 4880 c0 -5 5 -10 10 -10 6 0 10 5 10 10 0 6 -4 10 -10 10 -5 0
-10 -4 -10 -10z"/>
<path d="M4827 4863 c-4 -3 -7 -14 -7 -23 0 -10 -11 -28 -23 -41 -13 -13 -29
-45 -35 -70 -7 -26 -14 -54 -18 -63 -9 -25 89 27 116 61 l21 27 -20 8 c-12 4
-29 5 -39 2 -10 -4 -5 5 13 22 27 25 28 27 8 22 -24 -6 -31 6 -12 17 6 4 8 13
5 21 -5 12 -2 12 17 3 20 -11 21 -11 8 4 -14 18 -24 21 -34 10z"/>
<path d="M5192 4820 c16 -25 36 -32 56 -20 15 9 16 9 1 10 -9 0 -22 7 -29 15
-7 8 -19 15 -26 15 -12 0 -12 -4 -2 -20z"/>
<path d="M4480 4821 c0 -5 7 -11 14 -14 10 -4 13 -1 9 9 -6 15 -23 19 -23 5z"/>
<path d="M5040 4814 c0 -8 5 -12 10 -9 6 4 8 11 5 16 -9 14 -15 11 -15 -7z"/>
<path d="M4070 4810 c0 -6 7 -10 15 -10 8 0 15 2 15 4 0 2 -7 6 -15 10 -8 3
-15 1 -15 -4z"/>
<path d="M4279 4792 c-13 -33 -12 -34 16 -16 23 15 25 15 19 0 -5 -12 -2 -15
10 -10 9 3 16 16 16 29 0 32 -49 30 -61 -3z"/>
<path d="M4876 4781 c-4 -5 -2 -12 3 -16 6 -3 8 -11 5 -19 -3 -9 5 -13 26 -13
16 0 30 4 30 9 0 4 -6 8 -14 8 -8 0 -21 9 -29 21 -9 12 -18 16 -21 10z"/>
<path d="M4558 4736 c-4 -37 8 -41 50 -18 25 15 21 32 -9 32 -10 0 -19 5 -19
10 0 26 -18 6 -22 -24z"/>
<path d="M4830 4491 c0 -8 34 -21 55 -21 11 1 -35 29 -47 30 -5 0 -8 -4 -8 -9z"/>
<path d="M4145 4480 c3 -5 8 -10 11 -10 2 0 4 5 4 10 0 6 -5 10 -11 10 -5 0
-7 -4 -4 -10z"/>
<path d="M4765 4470 c-4 -6 5 -10 20 -10 15 0 24 4 20 10 -3 6 -12 10 -20 10
-8 0 -17 -4 -20 -10z"/>
<path d="M3801 4439 c-13 -17 -20 -33 -16 -37 3 -4 12 1 19 10 7 10 15 16 17
14 2 -3 5 7 5 20 1 13 1 24 0 23 0 0 -12 -14 -25 -30z"/>
<path d="M4990 4440 c0 -5 5 -12 10 -15 21 -13 10 -27 -16 -21 -25 7 -25 6
-10 -9 15 -16 18 -16 41 -1 31 21 31 30 0 44 -14 6 -25 7 -25 2z"/>
<path d="M4394 4421 c4 -6 0 -21 -8 -33 -16 -22 -23 -53 -8 -33 4 6 14 10 22
10 19 0 20 57 1 63 -8 3 -11 0 -7 -7z"/>
<path d="M4880 4410 c0 -5 16 -10 35 -10 19 0 35 4 35 8 0 4 -16 9 -35 10 -19
2 -35 -2 -35 -8z"/>
<path d="M4600 4390 c0 -5 5 -10 10 -10 6 0 10 5 10 10 0 6 -4 10 -10 10 -5 0
-10 -4 -10 -10z"/>
<path d="M3745 4380 c-3 -5 -1 -10 4 -10 6 0 11 5 11 10 0 6 -2 10 -4 10 -3 0
-8 -4 -11 -10z"/>
<path d="M4958 4363 c-27 -7 -21 -23 7 -23 14 0 25 4 25 9 0 13 -12 18 -32 14z"/>
<path d="M3690 4289 c0 -12 5 -19 12 -17 18 6 20 25 3 31 -10 5 -15 0 -15 -14z"/>
<path d="M4538 4232 c-10 -2 -18 -8 -18 -13 0 -13 27 -11 35 2 9 13 4 16 -17
11z"/>
<path d="M4450 4209 c0 -5 5 -7 10 -4 6 3 10 8 10 11 0 2 -4 4 -10 4 -5 0 -10
-5 -10 -11z"/>
<path d="M3467 4165 c9 -7 23 -11 30 -8 20 8 6 21 -22 21 -23 0 -24 -2 -8 -13z"/>
<path d="M4370 4161 c0 -5 8 -11 18 -14 9 -4 28 -14 42 -24 25 -17 25 -17 8 3
-10 11 -18 26 -18 32 0 7 -11 12 -25 12 -14 0 -25 -4 -25 -9z"/>
<path d="M3690 4150 c0 -5 5 -10 10 -10 6 0 10 5 10 10 0 6 -4 10 -10 10 -5 0
-10 -4 -10 -10z"/>
<path d="M3420 4109 c0 -5 5 -7 10 -4 6 3 10 8 10 11 0 2 -4 4 -10 4 -5 0 -10
-5 -10 -11z"/>
<path d="M4605 4090 c-3 -5 -1 -10 4 -10 6 0 11 5 11 10 0 6 -2 10 -4 10 -3 0
-8 -4 -11 -10z"/>
<path d="M3575 4080 c3 -5 11 -10 16 -10 6 0 7 5 4 10 -3 6 -11 10 -16 10 -6
0 -7 -4 -4 -10z"/>
<path d="M3658 4083 c7 -3 16 -2 19 1 4 3 -2 6 -13 5 -11 0 -14 -3 -6 -6z"/>
<path d="M3472 4071 c2 -7 7 -12 11 -12 12 1 9 15 -3 20 -7 2 -11 -2 -8 -8z"/>
<path d="M4395 4050 c-3 -5 -1 -10 4 -10 6 0 11 5 11 10 0 6 -2 10 -4 10 -3 0
-8 -4 -11 -10z"/>
<path d="M4364 4017 c2 -37 6 -42 29 -34 9 3 8 9 -4 23 -9 10 -19 26 -22 34
-3 8 -4 -2 -3 -23z"/>
<path d="M4491 4033 c15 -17 -12 -18 -29 -1 -17 17 -28 -18 -12 -37 14 -17 40
-20 40 -4 0 6 9 8 20 4 21 -7 28 10 8 18 -9 3 -7 9 6 19 17 14 17 15 -13 15
-24 0 -28 -3 -20 -14z"/>
<path d="M4385 3916 c20 -14 35 -12 35 5 0 5 -12 9 -27 9 -26 0 -26 -1 -8 -14z"/>
<path d="M4293 3903 c-24 -8 -43 -19 -43 -24 0 -12 27 -11 35 1 3 6 22 10 40
10 26 0 33 3 29 15 -7 17 -5 17 -61 -2z"/>
<path d="M4075 3859 c-4 -6 -5 -12 -2 -15 2 -3 7 2 10 11 7 17 1 20 -8 4z"/>
<path d="M4290 3860 c0 -10 26 -21 63 -25 33 -5 35 8 5 22 -28 13 -68 15 -68
3z"/>
<path d="M4433 3843 c-7 -3 -13 -9 -13 -14 0 -6 4 -8 9 -5 5 3 11 -1 15 -9 3
-8 11 -15 18 -15 9 0 8 3 -2 10 -10 6 -11 10 -2 10 6 0 12 4 12 9 0 11 -21 19
-37 14z"/>
<path d="M4215 3810 c3 -5 12 -7 20 -3 21 7 19 13 -6 13 -11 0 -18 -4 -14 -10z"/>
<path d="M3722 3768 c-19 -19 -14 -30 8 -18 11 6 20 15 20 20 0 14 -14 12 -28
-2z"/>
<path d="M4555 3770 c3 -5 10 -10 16 -10 5 0 9 5 9 10 0 6 -7 10 -16 10 -8 0
-12 -4 -9 -10z"/>
<path d="M4670 3740 c0 -5 5 -10 10 -10 6 0 10 5 10 10 0 6 -4 10 -10 10 -5 0
-10 -4 -10 -10z"/>
<path d="M3234 3634 c3 -8 6 -18 6 -20 0 -2 5 -4 10 -4 16 0 11 27 -6 34 -12
5 -15 2 -10 -10z"/>
<path d="M4190 3575 c0 -9 6 -12 15 -9 8 4 15 10 15 15 0 5 -7 9 -15 9 -8 0
-15 -7 -15 -15z"/>
<path d="M4480 3540 c0 -5 5 -10 10 -10 6 0 10 5 10 10 0 6 -4 10 -10 10 -5 0
-10 -4 -10 -10z"/>
<path d="M4068 3433 c6 -2 18 -2 25 0 6 3 1 5 -13 5 -14 0 -19 -2 -12 -5z"/>
<path d="M4030 3400 c0 -5 7 -10 15 -10 8 0 15 5 15 10 0 6 -7 10 -15 10 -8 0
-15 -4 -15 -10z"/>
<path d="M3779 3381 l-23 -18 27 0 c20 0 27 5 27 18 0 11 -2 19 -4 19 -2 0
-14 -8 -27 -19z"/>
<path d="M3820 3374 c0 -8 5 -12 10 -9 6 3 10 10 10 16 0 5 -4 9 -10 9 -5 0
-10 -7 -10 -16z"/>
<path d="M3705 3350 c-3 -5 -1 -10 4 -10 6 0 11 5 11 10 0 6 -2 10 -4 10 -3 0
-8 -4 -11 -10z"/>
<path d="M3740 3330 c0 -5 4 -10 9 -10 6 0 13 5 16 10 3 6 -1 10 -9 10 -9 0
-16 -4 -16 -10z"/>
<path d="M3785 3326 c-18 -13 -17 -14 17 -14 20 0 41 -3 47 -6 5 -4 13 -1 17
5 16 27 -49 39 -81 15z"/>
<path d="M3720 3302 c0 -12 19 -26 26 -19 2 2 -2 10 -11 17 -9 8 -15 8 -15 2z"/>
<path d="M3830 3262 c0 -5 -11 -7 -25 -4 -15 2 -33 -2 -43 -11 -9 -8 -30 -17
-47 -20 -16 -2 -4 -4 28 -4 32 0 60 4 63 9 3 5 12 1 18 -8 15 -19 36 -11 36
14 0 13 2 13 14 -4 8 -10 18 -16 22 -11 9 9 -8 28 -27 30 -8 2 -20 6 -26 10
-7 5 -13 4 -13 -1z"/>
<path d="M3660 3210 c0 -5 5 -10 10 -10 6 0 14 -9 18 -21 7 -19 9 -19 21 -5
11 13 11 16 -2 16 -8 0 -17 7 -21 15 -6 17 -26 21 -26 5z"/>
<path d="M3557 3148 c-2 -7 -1 -22 4 -33 6 -16 8 -14 8 13 1 33 -4 41 -12 20z"/>
<path d="M3586 3135 c4 -8 10 -15 16 -15 5 0 6 -4 3 -10 -4 -6 1 -7 11 -3 11
4 13 8 6 11 -7 2 -12 10 -12 18 0 8 -7 14 -15 14 -9 0 -12 -6 -9 -15z"/>
<path d="M3990 3125 c-7 -9 -11 -18 -8 -20 3 -3 11 1 18 10 7 9 11 18 8 20 -3
3 -11 -1 -18 -10z"/>
<path d="M3475 3099 c-4 -6 -5 -12 -2 -15 7 -7 37 7 37 17 0 13 -27 11 -35 -2z"/>
<path d="M3528 2959 c37 -33 52 -31 52 8 0 22 -2 24 -15 13 -12 -10 -19 -10
-27 -2 -7 7 -19 12 -27 12 -11 0 -5 -11 17 -31z"/>
<path d="M3413 2939 c-26 -9 -31 -26 -8 -26 8 0 15 4 15 8 0 4 8 9 18 11 9 2
13 6 7 10 -5 3 -20 2 -32 -3z"/>
<path d="M3460 2914 c-23 -22 -23 -25 -7 -41 21 -21 35 -9 19 17 -11 18 -9 20
12 20 30 0 42 15 20 24 -19 7 -14 9 -44 -20z"/>
<path d="M3580 2880 c-13 -8 -13 -10 2 -10 9 0 20 5 23 10 8 13 -5 13 -25 0z"/>
<path d="M3521 2837 c2 -1 11 -8 20 -15 13 -9 16 -9 16 3 0 8 -9 15 -20 15
-11 0 -18 -1 -16 -3z"/>
<path d="M2927 3339 c7 -7 15 -10 18 -7 3 3 -2 9 -12 12 -14 6 -15 5 -6 -5z"/>
<path d="M2718 3288 c18 -18 23 -19 37 -8 20 16 13 23 -27 26 l-31 3 21 -21z"/>
<path d="M2669 3293 c-11 -3 -15 -11 -11 -28 6 -33 18 -32 25 3 6 31 7 29 -14
25z"/>
<path d="M2410 3240 c0 -5 5 -10 11 -10 5 0 7 5 4 10 -3 6 -8 10 -11 10 -2 0
-4 -4 -4 -10z"/>
<path d="M2570 3220 c0 -5 6 -13 13 -17 8 -4 16 -16 20 -26 5 -14 10 -15 26
-5 14 8 16 14 7 22 -18 18 -66 36 -66 26z"/>
<path d="M2540 3160 c0 -5 10 -10 23 -10 18 0 19 2 7 10 -19 13 -30 13 -30 0z"/>
<path d="M2590 3121 c0 -5 7 -12 16 -15 14 -5 15 -4 4 9 -14 17 -20 19 -20 6z"/>
<path d="M2508 3025 c-16 -13 -24 -26 -20 -29 10 -6 55 31 50 43 -1 5 -15 -1
-30 -14z"/>
<path d="M2140 3027 c0 -9 -4 -17 -10 -17 -5 0 -10 -4 -10 -10 0 -5 4 -10 9
-10 12 0 25 39 17 47 -3 4 -6 -1 -6 -10z"/>
<path d="M2177 3019 c-4 -16 -3 -18 9 -8 7 6 11 15 8 20 -8 13 -11 11 -17 -12z"/>
<path d="M2379 2623 c-13 -16 -12 -17 4 -4 9 7 17 15 17 17 0 8 -8 3 -21 -13z"/>
<path d="M2340 2581 c0 -6 5 -13 10 -16 6 -3 10 1 10 9 0 9 -4 16 -10 16 -5 0
-10 -4 -10 -9z"/>
<path d="M3346 2235 c4 -8 11 -15 16 -15 6 0 5 6 -2 15 -7 8 -14 15 -16 15 -2
0 -1 -7 2 -15z"/>
<path d="M3320 2189 c0 -5 5 -7 10 -4 6 3 10 8 10 11 0 2 -4 4 -10 4 -5 0 -10
-5 -10 -11z"/>
</g>
</svg>
